<?xml version="1.0" encoding="utf-8"?>
<!-- Generator: Adobe Illustrator 23.0.3, SVG Export Plug-In . SVG Version: 6.00 Build 0)  -->
<svg version="1.1" id="Layer_1" xmlns="http://www.w3.org/2000/svg" xmlns:xlink="http://www.w3.org/1999/xlink" x="0px" y="0px"
	 viewBox="0 0 161 342" style="enable-background:new 0 0 161 342;" xml:space="preserve">
<style type="text/css">
	.st0{fill:#64B4FF;}
	.st1{fill:none;stroke:#64B4FF;stroke-width:12;stroke-miterlimit:10;stroke-dasharray:10,10,15,10,50,10;}
</style>
<text transform="matrix(1 0 0 1 -390 -103.4727)" style="font-family:'MyriadPro-Regular'; font-size:86.0691px;">100,180,255</text>
<g>
	<path class="st0" d="M80.5,15c17.01,0,33.06,6.68,45.19,18.81C137.82,45.94,144.5,61.99,144.5,79v76
		c0,17.01-6.68,33.06-18.81,45.19C113.56,212.32,97.51,219,80.5,219c-17.01,0-33.06-6.68-45.19-18.81
		C23.18,188.06,16.5,172.01,16.5,155V79c0-17.01,6.68-33.06,18.81-45.19C47.44,21.68,63.49,15,80.5,15 M80.5,3L80.5,3
		c-41.8,0-76,34.2-76,76v76c0,41.8,34.2,76,76,76h0c41.8,0,76-34.2,76-76V79C156.5,37.2,122.3,3,80.5,3L80.5,3z"/>
</g>
<g>
	<path class="st0" d="M80.5,56C74.73,56,70,60.73,70,66.5v21C70,93.27,74.73,98,80.5,98S91,93.27,91,87.5v-21
		C91,60.73,86.27,56,80.5,56L80.5,56z"/>
</g>
<g>
	<g>
		<line class="st1" x1="80.5" y1="244" x2="80.5" y2="326"/>
		<g>
			<polygon class="st0" points="60.16,302.82 80.5,323.18 100.84,302.82 100.84,320.09 80.5,340.44 60.16,320.09 			"/>
		</g>
	</g>
</g>
</svg>
